<svg width="365" height="266" viewBox="0 0 365 266" fill="none" xmlns="http://www.w3.org/2000/svg">
<path d="M241 59C245.5 51 243.5 39 243.5 39C243.5 39 254 43.5 258.5 72.5C266 66.6515 262 89 262 89C262 89 273 84 248 102.5C229.599 111.458 180.698 127.651 164 137.5C146.215 147.991 161.363 151.053 149.5 157.5C110 164.5 78 216 78 216C78 216 74 186.5 91 155C65 152 15 175 15 175C15 175 27.5 131 93 99C65 86.5 29 80.5 29 80.5C60 60 107.5 53 143 60C136 43 93 22 93 22C93 22 167 16.3485 203.5 51C203.5 34.3485 197.5 18 197.5 18C197.5 18 225.5 32.5 241 59Z" fill="#FF0000" stroke="#FF0000" stroke-linecap="round"/>
<path fill-rule="evenodd" clip-rule="evenodd" d="M112.163 249.528C137.552 216.823 138.684 210.599 142.204 191.256L142.296 190.752C142.296 185.629 141.93 181.541 141.603 177.882C141.042 171.607 140.593 166.596 142.296 159.794C147.057 140.774 154.426 131.743 154.426 131.743C142.296 131.743 124.326 126.807 109.5 120.077C144.093 109.309 184.044 92.2596 184.044 92.2596C184.044 92.2596 219.153 74.9867 251.5 70.5C283.847 66.0133 324.186 75 342.5 110C360.814 145 341.992 197.93 318 216.99C284 244 226.275 249.528 226.275 249.528C226.275 249.528 244.522 238.526 258 216.99C263.387 208.382 266.229 196.706 251.5 187.5C236.771 178.294 226.275 191.416 226.275 191.416C226.275 191.416 219.087 197.717 219.087 208.251C214.145 213.849 206.507 216.99 196.624 216.99C202.015 212.952 203.362 209.362 204.71 204.876C202.015 204.876 198.87 204.876 195.276 202.632C204.71 199.043 208.271 194.556 206.507 191.416C204.743 188.275 195.725 190.07 187.189 193.21C178.653 196.351 170.308 201.501 171.914 204.876C173.52 208.251 179.552 208.251 184.044 206.222C181.798 210.474 173.262 216.99 163.411 219.682C169.219 223.505 172.363 224.403 181.349 222.608C167.422 236.966 135.075 249.528 112.163 249.528ZM175.991 178.294H166.107V166.973H154.426V158H166.107V144.988H175.991V158H188.121V166.973H175.991V178.294Z" fill="black"/>
<path d="M142.296 190.752C142.296 185.629 141.93 181.541 141.603 177.882C141.042 171.607 140.593 166.596 142.296 159.794C147.057 140.774 154.426 131.743 154.426 131.743C142.296 131.743 124.326 126.807 109.5 120.077C144.093 109.309 184.044 92.2596 184.044 92.2596C184.044 92.2596 219.153 74.9867 251.5 70.5C283.847 66.0133 324.186 75 342.5 110C360.814 145 341.992 197.93 318 216.99C284 244 226.275 249.528 226.275 249.528C226.275 249.528 244.522 238.526 258 216.99C263.387 208.382 266.229 196.706 251.5 187.5C236.771 178.294 226.275 191.416 226.275 191.416C226.275 191.416 219.087 197.717 219.087 208.251C214.145 213.849 206.507 216.99 196.624 216.99C202.015 212.952 203.362 209.362 204.71 204.876C202.015 204.876 198.87 204.876 195.276 202.632C204.71 199.043 208.271 194.556 206.507 191.416C204.743 188.275 195.725 190.07 187.189 193.21C178.653 196.351 170.308 201.501 171.914 204.876C173.52 208.251 179.552 208.251 184.044 206.222C181.798 210.474 173.262 216.99 163.411 219.682C169.219 223.505 172.363 224.403 181.349 222.608C167.422 236.966 135.075 249.528 112.163 249.528C137.552 216.823 138.684 210.599 142.204 191.256M142.296 190.752L142.204 191.256M142.296 190.752C142.265 190.921 142.235 191.089 142.204 191.256M166.107 144.988H175.991V158H188.121V166.973H175.991V178.294H166.107V166.973H154.426V158H166.107V144.988Z" stroke="black" stroke-linecap="round"/>
</svg>
