<?xml version="1.0" standalone="no"?>
<!DOCTYPE svg PUBLIC "-//W3C//DTD SVG 20010904//EN"
 "http://www.w3.org/TR/2001/REC-SVG-20010904/DTD/svg10.dtd">
<svg version="1.0" xmlns="http://www.w3.org/2000/svg"
 width="2000.000000pt" height="2000.000000pt" viewBox="0 0 2000.000000 2000.000000" preserveAspectRatio="xMidYMid meet">

<g transform="translate(0.000000,2000.000000) scale(0.100000,-0.100000)" fill="#000000" stroke="none">
<path d="M607 19392 l-607 -607 0 -1265 0 -1265 1250 1250 1250 1250 0 622 0
623 -643 0 -642 0 -608 -608z"/>
<path d="M3882 19694 c-84 -168 -150 -309 -147 -312 3 -3 146 134 318 306
l312 312 -165 0 -165 0 -153 -306z"/>
<path d="M2482 17517 c-1411 -1411 -2482 -2490 -2482 -2500 0 -16 36 -17 623
-17 l622 0 1250 1250 1250 1250 617 0 618 0 0 -617 0 -618 -1250 -1250 -1250
-1250 0 -625 0 -625 -1240 -1240 -1240 -1240 0 -640 0 -640 623 623 622 622
618 0 617 0 0 -618 0 -617 -1240 -1240 -1240 -1240 0 -952 0 -953 288 -1 287
0 -287 -145 -288 -144 0 -2043 0 -2042 1248 1248 1247 1247 625 0 625 0 1250
1250 1250 1250 617 0 618 0 0 -617 0 -618 -1247 -1247 -1248 -1248 -5 -635 -5
-635 1885 0 1885 0 627 627 628 628 0 632 0 633 -633 0 -632 0 -1250 -1250
-1250 -1250 -610 0 -610 0 2490 2490 2490 2490 625 0 625 0 1250 1250 1250
1250 617 0 618 0 0 -617 0 -618 -1250 -1250 -1250 -1250 0 -625 0 -625 -1257
-1257 -1258 -1258 2047 0 2048 0 144 288 145 287 0 -287 1 -288 948 0 947 0
1250 1250 1250 1250 617 0 618 0 0 -617 0 -618 -632 -632 -633 -633 643 0 642
0 0 2045 0 2045 -292 -146 -293 -146 293 294 292 293 0 948 c0 630 -3 946 -10
942 -6 -4 -10 -226 -10 -633 l0 -627 -2490 -2490 -2490 -2490 0 610 0 610
1250 1250 1250 1250 0 632 0 633 -633 0 -632 0 -1250 -1250 -1250 -1250 -610
0 -610 0 2490 2490 2490 2490 625 0 625 0 628 628 627 627 0 640 0 640 -1250
-1250 -1250 -1250 0 610 0 610 1250 1250 1250 1250 0 632 0 633 -633 0 -632 0
-1250 -1250 -1250 -1250 -610 0 -610 0 2493 2493 2492 2492 0 1890 0 1890
-633 -633 -632 -632 -610 0 -610 0 1240 1240 1240 1240 -640 0 -640 0 -618
-618 -617 -617 0 -625 0 -625 -2490 -2490 -2490 -2490 0 610 0 610 1250 1250
1250 1250 0 632 0 633 -633 0 -632 0 -1250 -1250 -1250 -1250 -610 0 -610 0
2490 2490 2490 2490 -325 0 -325 0 -283 -282 -284 -283 141 283 141 282 -790
0 -790 0 0 -617 0 -618 -1250 -1250 -1250 -1250 0 -625 0 -625 -2490 -2490
-2490 -2490 0 610 0 610 1250 1250 1250 1250 0 632 0 633 -633 0 -632 0 -1250
-1250 -1250 -1250 -610 0 -610 0 2490 2490 2490 2490 625 0 625 0 1250 1250
1250 1250 -640 0 -640 0 -1232 -1232 -1233 -1233 0 610 0 610 622 622 623 623
-1890 0 -1890 0 -2483 -2483z m3087 1859 c-2 -2 -263 -133 -579 -291 l-575
-287 290 291 290 291 289 0 c159 0 287 -2 285 -4z m995 -2156 l-286 -285 284
568 283 567 3 -282 2 -283 -286 -285z m11505 -344 c-2 -2 -263 -133 -579 -291
l-575 -287 290 291 290 291 289 0 c159 0 287 -2 285 -4z m995 -2156 l-286
-285 284 568 283 567 3 -282 2 -283 -286 -285z m-1584 -337 l0 -618 -1250
-1250 -1250 -1250 0 -625 0 -625 -2490 -2490 -2490 -2490 0 610 0 610 1250
1250 1250 1250 0 632 0 633 -633 0 -632 0 -1250 -1250 -1250 -1250 -610 0
-610 0 2490 2490 2490 2490 625 0 625 0 1250 1250 1250 1250 617 0 618 0 0
-617z m-6911 -7 c-2 -2 -263 -133 -579 -291 l-575 -287 290 291 290 291 289 0
c159 0 287 -2 285 -4z m995 -2156 l-286 -285 284 568 283 567 3 -282 2 -283
-286 -285z m-1584 -337 l0 -618 -1250 -1250 -1250 -1250 0 -625 0 -625 -2490
-2490 -2490 -2490 0 610 0 610 1250 1250 1250 1250 0 632 0 633 -633 0 -632 0
-1250 -1250 -1250 -1250 -610 0 -610 0 2490 2490 2490 2490 625 0 625 0 1250
1250 1250 1250 617 0 618 0 0 -617z m-6911 -7 c-2 -2 -263 -133 -579 -291
l-575 -287 290 291 290 291 289 0 c159 0 287 -2 285 -4z m995 -2156 l-286
-285 284 568 283 567 3 -282 2 -283 -286 -285z m11505 -344 c-2 -2 -263 -133
-579 -291 l-575 -287 290 291 290 291 289 0 c159 0 287 -2 285 -4z m995 -2156
l-286 -285 284 568 283 567 3 -282 2 -283 -286 -285z m-8495 -344 c-2 -2 -263
-133 -579 -291 l-575 -287 290 291 290 291 289 0 c159 0 287 -2 285 -4z m995
-2156 l-286 -285 284 568 283 567 3 -282 2 -283 -286 -285z m-7500 -2500
l-286 -285 284 568 283 567 3 -282 2 -283 -286 -285z m11505 -344 c-2 -2 -263
-133 -579 -291 l-575 -287 290 291 290 291 289 0 c159 0 287 -2 285 -4z"/>
<path d="M12175 11580 c-175 -175 -316 -322 -313 -325 9 -9 1258 618 1258 632
0 10 -69 13 -313 13 l-312 0 -320 -320z"/>
<path d="M14047 10021 c-175 -348 -315 -636 -312 -639 3 -3 147 135 321 309
l314 314 -2 325 -3 325 -318 -634z"/>
<path d="M4675 9080 c-175 -175 -316 -322 -313 -325 9 -9 1258 618 1258 632 0
10 -69 13 -313 13 l-312 0 -320 -320z"/>
<path d="M6547 7521 c-175 -348 -315 -636 -312 -639 3 -3 147 135 321 309
l314 314 -2 325 -3 325 -318 -634z"/>
<path d="M14675 19080 c-175 -175 -316 -322 -313 -325 9 -9 1258 618 1258 632
0 10 -69 13 -313 13 l-312 0 -320 -320z"/>
<path d="M16547 17521 c-175 -348 -315 -636 -312 -639 3 -3 147 135 321 309
l314 314 -2 325 -3 325 -318 -634z"/>
<path d="M7175 16580 c-175 -175 -316 -322 -313 -325 9 -9 1258 618 1258 632
0 10 -69 13 -313 13 l-312 0 -320 -320z"/>
<path d="M9047 15021 c-175 -348 -315 -636 -312 -639 3 -3 147 135 321 309
l314 314 -2 325 -3 325 -318 -634z"/>
<path d="M0 14235 c0 -91 2 -165 5 -165 19 0 615 307 615 317 0 10 -68 13
-310 13 l-310 0 0 -165z"/>
<path d="M19675 14080 c-175 -175 -316 -322 -313 -325 3 -3 148 65 322 152
l316 158 0 167 c0 93 -1 168 -3 168 -1 0 -146 -144 -322 -320z"/>
<path d="M1547 12521 c-175 -348 -315 -636 -312 -639 3 -3 147 135 321 309
l314 314 -2 325 -3 325 -318 -634z"/>
<path d="M17175 6580 c-175 -175 -316 -322 -313 -325 9 -9 1258 618 1258 632
0 10 -69 13 -313 13 l-312 0 -320 -320z"/>
<path d="M19047 5021 c-175 -348 -315 -636 -312 -639 3 -3 147 135 321 309
l314 314 -2 325 -3 325 -318 -634z"/>
<path d="M9675 4080 c-175 -175 -316 -322 -313 -325 9 -9 1258 618 1258 632 0
10 -69 13 -313 13 l-312 0 -320 -320z"/>
<path d="M11547 2521 c-175 -348 -315 -636 -312 -639 3 -3 147 135 321 309
l314 314 -2 325 -3 325 -318 -634z"/>
<path d="M2175 1580 c-175 -175 -316 -322 -313 -325 9 -9 1258 618 1258 632 0
10 -69 13 -313 13 l-312 0 -320 -320z"/>
<path d="M4200 330 c-88 -176 -160 -322 -160 -325 0 -3 74 -5 165 -5 l165 0 0
325 c0 179 -2 325 -5 325 -3 0 -77 -144 -165 -320z"/>
<path d="M1225 10 c-4 -7 210 -10 634 -10 421 0 641 3 641 10 0 14 -1266 14
-1275 0z"/>
</g>
</svg>
